<svg xmlns:xlink="http://www.w3.org/1999/xlink" width="209" height="8" viewBox="0 0 209 8" fill="none" xmlns="http://www.w3.org/2000/svg" class="absolute bottom-0 left-0 right-0 transform"><path d="M119.752 0.462045C82.3067 -0.0268318 45.5292 1.10406 20.5682 3.51316C16.9022 3.86696 12.0039 4.45556 8.02123 4.99038C6.02994 5.25778 4.26573 5.51199 2.99788 5.7169C2.36454 5.81927 1.85201 5.90982 1.49611 5.98396C1.3192 6.02081 1.17517 6.05479 1.07272 6.08539C1.02303 6.10023 0.973225 6.11713 0.93191 6.13683C0.912378 6.14614 0.882371 6.16179 0.853373 6.18575C0.834307 6.20151 0.757052 6.26762 0.75344 6.38477C0.746955 6.59504 0.922464 6.68802 1.00867 6.7202C1.10844 6.75745 1.2382 6.7762 1.38444 6.78615C1.68358 6.8065 2.14059 6.79461 2.78541 6.75126C4.07965 6.66427 6.17778 6.44692 9.39216 6.0789C16.8586 5.22412 22.4488 4.6963 29.5039 4.17998C60.9565 1.87841 107.405 1.3004 141.74 2.78363C160.862 3.60976 179.917 4.92813 198.683 6.72362C201.658 7.00826 204.946 7.29522 205.989 7.36092C206.852 7.41537 207.348 7.44203 207.663 7.42509C207.824 7.41641 207.954 7.39584 208.069 7.35479C208.187 7.31275 208.275 7.25445 208.357 7.19226C208.48 7.09946 208.581 6.98173 208.624 6.83671C208.67 6.68374 208.641 6.53301 208.563 6.40524C208.421 6.17139 208.117 6.01529 207.764 5.92219C207.608 5.88109 207.191 5.82274 206.587 5.75062C205.973 5.67723 205.143 5.58718 204.143 5.48463C202.143 5.27948 199.461 5.02391 196.46 4.75093C190.457 4.20498 183.173 3.58917 177.514 3.16762C171.317 2.70612 160.208 1.98825 153.472 1.61408C146.945 1.25154 126.366 0.548433 119.752 0.462045Z" fill="#2a3c78" stroke="#2a3c78" stroke-width="0.5px"></path></svg>