<svg width="62" height="20" viewBox="0 0 62 20" fill="none" xmlns="http://www.w3.org/2000/svg">
<path d="M51.7795 1.95867C45.578 1.95117 44 1.67968 44 0.62118C44 0.00968003 45.2005 -0.0808178 51.5445 0.0546822L59.089 0.215678L60.349 1.68168C61.7425 3.30368 61.736 2.59317 60.463 14.1092C59.926 18.9697 59.675 19.9762 59.031 19.8502C58.1225 19.6732 57.9625 15.0562 58.666 9.33018L59.082 5.94418L56.916 7.37267C53.23 9.80367 47.7355 11.6477 39.25 13.3012C32.513 14.6142 20.099 14.4797 14.75 13.0357C7.848 11.1722 0 6.89068 0 4.98818C0 4.16968 1.359 4.37668 1.6925 5.24618C2.1125 6.34118 9.48748 9.69219 14.17 10.9157C26.4235 14.1177 47.07 11.3497 56.148 5.28718C58.8855 3.45968 59.0545 3.24217 58.219 2.63117C57.593 2.17317 55.584 1.96367 51.7795 1.95867Z" fill="#48639C"/>
</svg>
