<svg width="15" height="76" viewBox="0 0 15 76" fill="none" xmlns="http://www.w3.org/2000/svg">
<path d="M6.24854 0.950012H8.24854V1.72601H6.24854V0.950012ZM6.24854 4.72601H8.24854V7.72601H6.24854L6.24854 4.72601ZM6.24854 10.726H8.24854V13.726H6.24854L6.24854 10.726ZM6.24854 16.726H8.24854V19.726H6.24854V16.726ZM6.24854 22.726H8.24854L8.24854 25.726H6.24854L6.24854 22.726ZM6.24854 28.726H8.24854V31.726H6.24854V28.726ZM6.24854 34.726H8.24854L8.24854 37.726H6.24854L6.24854 34.726ZM6.24854 40.726H8.24854V43.726H6.24854V40.726ZM6.24854 46.726H8.24854V49.726H6.24854L6.24854 46.726ZM6.24854 52.726H8.24854V55.726H6.24854L6.24854 52.726ZM6.24854 58.726H8.24854V61.726H6.24854V58.726ZM6.24854 64.726H8.24854L8.24854 67.726H6.24854V64.726ZM6.24854 70.726H8.24854V73.726H6.24854V70.726Z" fill="#48639C"/>
<path d="M1.42846 66.364C1.73846 66.364 2.04346 66.508 2.23946 66.777L6.85647 73.149C6.97447 73.312 7.10846 73.405 7.22546 73.406C7.34146 73.406 7.47546 73.313 7.59446 73.152L12.2615 66.774C12.5875 66.328 13.2135 66.231 13.6585 66.557C14.1045 66.883 14.2015 67.509 13.8755 67.954L9.20846 74.332C8.70846 75.015 7.98646 75.406 7.22546 75.406C7.22546 75.406 7.22246 75.406 7.22046 75.406C6.45746 75.404 5.73446 75.01 5.23746 74.323L0.620465 67.951C0.296465 67.504 0.395465 66.878 0.843465 66.555C1.01946 66.426 1.22546 66.364 1.42846 66.364Z" fill="#48639C"/>
</svg>
