<svg width="448" height="265" viewBox="0 0 448 265" fill="none" xmlns="http://www.w3.org/2000/svg">
<g clip-path="url(#clip0_196_3)">
<path fill-rule="evenodd" clip-rule="evenodd" d="M206.985 6.65811C205.365 9.82444 202.882 15.3655 202.054 17.7762C201.262 18.0281 200.723 18.244 200.615 18.3159C200.615 18.3159 200.543 20.9426 203.818 21.1225C204.573 21.1584 205.761 21.0145 206.661 20.7986C212.779 19.2874 216.486 17.9561 216.557 14.358C214.614 14.3221 210.367 15.3295 206.769 16.373C207.049 15.7469 207.33 15.082 207.611 14.4171C207.798 13.9738 207.985 13.5305 208.172 13.0987C216.306 10.8679 217.817 6.87399 217.817 6.87399C217.601 6.58614 213.319 7.73754 209.936 8.81697C210.061 8.51132 210.169 8.24162 210.259 8.01682L210.26 8.01597L210.262 8.01115L210.263 8.00644L210.264 8.00548L210.266 7.99992C210.353 7.78271 210.423 7.60851 210.475 7.48567C210.619 7.12586 210.619 6.76605 210.511 6.40624L211.117 6.24762C214.437 5.37821 216.268 4.89884 217.457 4.35532C219.94 3.23991 220.732 0.0376048 220.732 0.0376048C220.409 -0.46555 205.184 4.23654 204.468 4.82107C204.467 4.82052 204.466 4.82041 204.466 4.82075L204.465 4.82173V4.82308L204.468 4.82107C204.473 4.82464 204.488 4.84675 204.511 4.88374C204.692 5.16317 205.42 6.28995 206.985 6.65811ZM213.462 33.8956C195.684 36.5942 177.978 40.4082 161.603 45.1936C171.392 36.1264 195.108 27.8508 221.596 22.6695C231.133 10.0042 239.266 1.00898 241.605 1.00898C246.032 1.00898 250.674 7.52154 250.674 10.5439C249.631 11.1196 246.176 13.8542 241.677 19.3593C262.73 16.6247 283.712 16.049 299.439 18.6756C302.893 19.2513 306.96 27.2751 307.14 30.9811C285.691 28.1746 259.455 28.4625 232.572 31.3769C216.053 54.4048 194.46 90.6376 194.46 109.456C188.846 109.456 182.8 101.504 182.8 95.711C182.8 82.6139 198.275 55.7001 213.462 33.8956ZM87.5748 264.93C125.147 239.923 246.068 226.034 287.67 234.058C292.601 235.029 298.179 245.032 298.179 248.774C252.69 238.663 145.444 249.458 87.5748 264.93ZM238.798 215.924C238.798 218.73 245.276 227.258 250.854 227.258C250.854 203.078 271.188 162.744 286.951 137.413C312.826 135.146 336.723 134.642 348.887 136.945C348.923 133.203 344.604 124.064 339.602 123.452C329.237 122.157 313.042 122.877 295.156 124.964C299.835 118.343 303.325 114.349 304.549 114.349C304.549 111.327 299.906 104.814 295.48 104.814C293.249 104.814 285.943 114.025 277.27 127.446C241.353 133.131 204.105 143.206 195.396 153.137C210.835 147.668 240.382 142.45 270.036 139.104C254.921 164.543 238.798 197.825 238.798 215.924ZM236.639 42.6751C241.065 42.6751 245.708 49.1876 245.708 52.21C243.045 52.21 225.518 77.0009 221.415 96.2867C230.593 90.8896 243.62 73.5467 251.682 62.5366C257.98 51.0946 265.537 40.5522 267.481 40.5522C271.907 40.5522 276.55 47.0647 276.55 50.0871C274.606 50.0871 254.489 77.6486 254.489 99.7769C247.903 100.209 242.505 92.9045 242.505 88.5508C242.505 87.5074 242.649 84.413 242.937 83.1177C236.926 91.5372 227.497 102.979 220.732 102.979C215.153 102.979 209.071 91.8251 209.071 89.0186C209.071 78.2962 231.06 42.6751 236.639 42.6751ZM282.632 76.677C289.002 62.0328 298.431 48.9716 300.41 48.9716C300.41 45.9492 295.768 39.4367 291.341 39.4367C287.922 39.4367 265.43 73.7266 265.43 89.3783C265.43 92.1848 271.152 99.8847 276.73 99.8847C278.097 93.9839 292.745 69.9486 308.76 50.8067C307.572 54.1889 306.816 57.5351 306.816 60.5935C306.816 63.4 311.783 70.3803 316.605 70.3803C318.548 70.3803 321.104 68.1855 323.551 64.8752C321.248 70.4883 320.132 75.8495 320.132 82.434C320.132 87.5793 326.79 97.8338 335.643 97.8338C356.624 97.8338 382.788 76.8569 382.788 60.7734C382.788 56.2758 377.821 52.8576 377.821 52.8576C377.821 74.0144 346.151 91.6451 333.232 90.0619C331.756 83.5494 332.98 76.713 336.075 69.8766C347.735 81.6064 370.3 61.9248 371.919 46.489C372.387 42.0993 371.919 39.4367 371.235 37.8535C370.768 35.4428 366.557 30.5494 361.159 30.5494C353.853 30.5494 337.262 40.4801 327.581 56.6716C324.99 59.1183 319.556 63.9757 316.965 64.4075C319.196 45.9133 329.453 38.3213 331.216 38.3213C331.216 35.2989 327.15 30.3695 322.723 30.3695C321.571 30.3695 318.98 32.2765 316.641 35.3708C305.017 45.5535 291.557 61.1692 282.632 76.677ZM364.11 40.4082C364.937 54.3328 347.807 66.9981 337.55 66.7103C344.028 54.5487 354.645 44.1862 364.11 40.4082ZM129.501 176.416C115.538 198.581 100.927 229.236 99.0191 236.253C93.4049 236.253 87.2869 225.818 87.3229 222.976C87.3229 202.934 108.34 161.376 114.746 161.376C119.173 161.376 123.815 167.889 123.815 170.911C122.772 170.911 112.083 187.822 105.065 207.216C113.523 188.866 127.918 166.593 136.807 157.886C140.19 152.381 143.753 149.287 145.336 149.287C149.763 149.287 153.83 154.216 153.83 157.238C152.066 157.238 139.542 175.949 139.542 183.828C141.198 183.828 143.861 181.418 146.38 178.719C156.925 164.219 171.14 154.756 177.762 154.756C181.613 154.756 185.823 157.346 188.378 160.513C189.35 161.808 190.178 164.111 190.178 168.105C190.178 182.065 166.965 203.69 153.578 193.327C148.467 202.646 145.228 213.009 146.56 221.932C159.12 220.097 177.726 205.309 189.098 189.909C198.383 171.091 216.557 152.165 223.395 152.165C228.002 152.165 233.256 156.159 234.516 158.426C236.279 161.376 236.171 165.334 234.66 169.112C234.839 169.004 235.019 168.968 235.163 168.968C239.59 168.968 243.297 175.625 243.297 178.647C241.893 178.647 229.765 204.302 229.765 222.58C221.704 222.58 218.321 214.052 218.321 211.246C218.321 209.339 218.717 206.712 219.4 203.762C211.879 214.268 201.118 224.523 197.268 224.523C191.401 224.523 183.7 217.687 183.448 210.778C183.412 209.411 183.484 207.936 183.664 206.46C173.551 218.91 156.889 229.164 146.416 229.164C142.493 229.164 133.532 222.256 133.532 214.916C133.532 205.489 136.231 196.566 140.334 188.578C139.65 188.938 139.002 189.154 138.463 189.154C133.64 189.154 128.89 184.98 128.89 182.173C128.89 180.842 129.214 177.892 129.501 176.416ZM218.933 180.77C226.994 172.135 230.557 163.391 229.333 160.657C216.845 168.752 195.288 200.056 195.54 217.687C204.429 213.297 222.244 189.909 228.937 176.92C226.202 179.115 222.783 180.626 218.933 180.77ZM181.757 163.607C184.528 176.308 166.677 189.405 155.413 190.197C163.043 177.748 173.155 167.601 181.757 163.607ZM87.2869 191.852C85.9553 202.718 53.0979 255.359 19.8087 253.991C11.2795 215.636 58.9281 147.919 93.225 137.233C95.2763 145.653 87.6468 162.42 71.2001 173.394C85.4875 177.64 105.389 160.117 105.389 144.177C105.389 139.608 103.014 136.441 100.387 134.283C98.1554 132.34 93.6568 129.173 87.9707 129.173C86.1353 129.173 84.2639 129.353 82.3925 129.677C83.904 111.938 95.5642 88.155 109.816 66.6024C119.245 65.1271 128.53 64.2276 137.347 64.0477C128.638 76.1733 119.353 93.4082 119.353 100.065C119.353 102.871 124.859 114.025 131.013 114.025C137.527 114.025 149.043 100.928 157.141 90.6017C156.457 92.8685 156.061 96.7544 156.061 98.3736C156.061 103.159 162.107 110.211 167.721 110.211C167.721 88.083 188.594 59.0463 191.653 59.0463C191.653 56.0239 187.011 49.5114 182.584 49.5114C181.181 49.5114 176.538 55.1964 171.536 62.7884C162.467 74.878 143.537 98.9853 131.985 106.002C136.555 85.2045 156.889 60.7015 159.588 60.7015C159.588 57.6791 154.945 51.1665 150.519 51.1665C148.251 51.1665 144.257 55.1244 139.83 60.8454C138.355 56.9235 134.828 52.138 132.165 52.3539C127.63 52.7137 123.204 53.2174 118.849 53.8651C136.663 30.8013 155.881 15.5093 163.654 12.415V12.307C163.87 12.343 156.313 3.38374 150.015 3.38374C125.522 3.38374 92.5655 16.7818 63.5052 28.596C41.5401 37.5257 21.8008 45.5506 9.62396 46.2011C10.1638 40.9119 14.9503 32.6723 31.325 20.5467C22.5078 20.5827 4.04576 31.5209 1.45459 44.2222C1.45459 50.5189 8.32837 55.952 11.9992 55.952C22.415 55.952 45.3626 47.3056 70.8163 37.715C92.2385 29.6434 115.436 20.9029 134.432 16.085C123.671 24.6485 109.888 40.4801 97.8315 58.1108C66.1617 66.1706 42.5893 80.2392 37.443 89.6302C51.0106 82.1461 69.9045 75.3098 89.8061 70.5962C78.4697 89.3783 70.1564 108.736 70.1564 122.625C70.1564 122.625 70.3004 126.043 76.7423 131.188C42.5174 142.522 3.03808 196.386 3.03808 238.52C3.03808 252.552 17.3615 264.57 23.3716 264.57C58.6042 267.268 97.5076 212.146 87.2869 191.852ZM386.962 177.963C404.057 169.436 422.627 164.471 440.009 166.054C441.953 166.234 446.811 170.947 446.883 175.229C446.883 182.893 435.043 195.954 424.93 192.644C437.346 186.131 441.413 173.502 441.413 173.502C428.817 171.667 411.542 176.38 394.448 184.908C394.57 185.024 394.694 185.141 394.818 185.259L394.844 185.284C399.175 189.392 404.553 194.494 404.309 203.186C403.841 218.19 377.21 259.46 337.442 259.46C328.445 259.46 323.803 249.062 323.803 249.062C323.803 228.877 348.311 199.948 379.477 182.029C376.022 178.683 372.459 174.149 372.459 169.508C372.459 168.536 372.603 167.493 372.855 166.414C369.832 170.623 365.405 173.358 363.354 173.358C358.532 173.358 353.565 166.378 353.565 163.571C353.565 162.204 353.745 160.729 353.997 159.217C338.45 182.533 323.263 211.21 323.263 215.815C318.656 215.815 312.682 208.223 312.682 205.417C312.682 191.528 324.774 161.916 333.232 149.718C327.006 150.114 320.924 150.654 314.59 152.741C323.911 172.71 300.626 215.708 279.897 216.715V216.787C273.779 216.787 266.617 210.562 266.617 202.754C266.617 177.927 286.159 151.266 297.423 151.266C303.253 151.266 308.832 155.943 308.832 158.066C294.868 158.066 278.997 189.262 278.997 209.483C293.68 206.209 314.842 165.298 308.076 147.56C308.078 147.561 308.091 147.558 308.116 147.551C308.158 147.538 308.233 147.514 308.341 147.48C310.12 146.911 320.816 143.494 339.278 143.494C343.704 143.494 348.275 150.87 348.275 153.892C346.871 153.892 335.607 172.674 328.661 191.564C336.938 175.229 350.938 152.417 361.483 140.363C364.398 135.614 367.277 132.268 368.752 132.268C373.179 132.268 377.245 137.197 377.245 140.219C375.482 140.219 365.729 155.547 365.729 164.65C368.608 164.65 372.891 161.304 375.914 158.93C383.615 145.293 401.898 129.317 408.771 129.317C413.63 129.317 421.439 136.657 421.439 145.005C421.439 149.898 416.005 161.556 401.07 159.469C411.363 151.374 414.601 144.537 415.069 139.536C398.299 149.718 388.87 161.088 385.703 171.379C385.271 174.365 385.883 176.416 386.962 177.963ZM386.89 188.83C360.115 203.978 336.219 229.452 332.872 250.465C363.498 248.198 387.97 219.989 392.757 199.768C393.482 193.306 390.955 191.59 387.342 189.137C387.193 189.036 387.043 188.934 386.89 188.83ZM176.251 13.4226L177.006 13.2067C175.279 16.7688 173.228 21.4104 172.688 23.2094C172.292 24.5407 174.343 26.3038 174.991 26.3398C175.639 26.3757 180.929 13.6025 181.613 11.8034V11.7675C182.046 11.6116 182.446 11.5057 182.808 11.4098C183.198 11.3064 183.545 11.2145 183.844 11.0838C186.327 9.9684 187.047 6.22638 187.047 6.22638C186.723 5.72265 171.32 10.3642 170.636 10.9759C170.636 10.9697 170.649 10.9912 170.673 11.0349C170.937 11.5024 172.631 14.5083 176.251 13.4226ZM185.392 15.7253C184.672 15.1496 184.384 14.502 184.384 14.502C184.528 14.394 185.248 14.0702 186.399 13.6744C188.307 9.53661 190.538 5.14693 190.826 5.18291C191.258 5.18291 193.525 6.62215 192.913 8.27727C192.733 8.74503 192.194 10.0403 191.474 11.6955C193.381 11.0118 195.36 10.3282 196.98 9.78848C198.527 6.40626 200.075 3.41984 200.291 3.41984C200.723 3.41984 202.99 4.85908 202.378 6.5142C202.27 6.79914 202.056 7.38193 201.77 8.16093C200.251 12.3004 196.697 21.9803 196.152 21.9501C195.504 21.9141 193.021 19.5393 193.417 18.208C193.633 17.4524 194.137 16.1571 194.785 14.6819C193.525 15.1137 191.906 15.6174 189.746 16.2651L189.422 16.373C187.839 19.8272 186.291 23.1014 185.968 23.0655C185.32 23.0295 183.268 21.2664 183.664 19.9351C183.952 19.0716 184.6 17.5244 185.392 15.7253ZM250.782 113.342C249.991 115.896 246.104 127.266 245.492 127.266C244.844 127.266 242.685 125.647 243.045 124.316C243.513 122.481 245.168 117.911 246.572 114.457C246.14 114.565 245.672 114.673 245.204 114.781C241.173 115.752 239.734 111.938 239.734 111.938C240.454 111.399 256.001 107.513 256.324 108.016C256.324 108.016 255.389 111.723 252.834 112.694C252.294 112.874 251.61 113.09 250.782 113.342ZM258.844 124.892C260.535 125.179 266.941 122.841 266.977 114.601C267.013 109.959 261.867 108.988 261.867 108.988C266.293 114.997 260.535 121.761 258.952 122.373C257.042 120.947 259.329 117.127 260.831 114.618C261.452 113.581 261.939 112.768 261.939 112.442C261.939 110.319 260.427 108.988 259.527 108.952C258.988 108.952 254.201 113.27 254.165 117.228C254.093 123.164 257.152 124.604 258.844 124.892ZM188.271 124.244C186.687 128.67 184.276 134.822 183.844 134.858C183.196 134.894 180.965 133.383 181.217 132.016C181.649 129.713 184.384 122.949 186.003 119.459C185.608 118.523 185.392 117.875 185.464 117.803C185.751 117.444 188.199 116.4 189.206 117.875C189.818 118.739 192.085 122.805 193.921 126.367C195.612 121.006 198.203 113.738 198.527 113.738C198.995 113.702 200.939 118.019 200.507 119.746C200.183 121.078 195.9 134.139 195.144 134.175C192.873 134.264 190.701 129.514 189.143 126.108C188.825 125.413 188.533 124.774 188.271 124.244ZM152.966 121.15C152.642 120.646 137.167 124.496 136.447 125.072C136.447 125.072 137.167 126.799 139.362 127.195C137.851 130.433 135.295 136.73 134.612 139.14C134.526 139.171 134.444 139.199 134.366 139.227C133.887 139.395 133.558 139.51 133.496 139.572C133.496 139.572 133.388 143.566 139.542 142.055C145.696 140.544 149.367 139.212 149.439 135.614C147.423 135.578 142.889 136.694 139.146 137.737C139.686 136.406 140.226 134.967 140.73 133.599C148.755 131.908 148.575 128.454 148.575 128.454C148.395 128.13 145.012 128.814 142.241 129.533C142.342 129.264 142.428 129.017 142.501 128.806L142.502 128.805C142.585 128.566 142.652 128.372 142.709 128.238C142.853 127.77 142.781 127.339 142.601 126.943L143.388 126.778C146.494 126.127 148.277 125.753 149.475 125.288C152.03 124.316 152.966 121.15 152.966 121.15ZM165.166 132.16C165.238 135.794 161.747 138.025 155.521 138.996C151 139.708 151.057 136.02 151.059 135.904V135.902C151.131 135.866 151.419 135.722 151.814 135.578C151.67 135.254 151.598 134.966 151.67 134.643C152.354 131.476 157.608 120.07 158.076 120.07C158.544 120.07 160.919 121.33 160.416 123.021C160.056 124.244 157.716 130.289 155.989 134.175C159.192 133.203 163.151 132.196 165.166 132.16ZM133.424 129.353C133.424 127.051 131.769 124.82 129.178 124.64C126.838 124.496 120.253 127.087 118.597 128.382C118.597 128.382 120.109 130.793 121.62 130.685C119.677 134.247 116.726 140.22 116.114 142.379C115.754 143.71 117.841 145.401 118.489 145.437C118.705 145.437 119.425 144.178 120.324 142.379C121.368 144.501 124.355 145.833 127.162 144.969C131.805 143.566 132.597 139.572 132.093 136.945C131.841 135.578 130.401 134.391 128.998 134.283C131.121 133.743 133.424 132.196 133.424 129.353ZM128.962 130.937C127.724 131.666 126.784 131.852 126.102 131.988C125.674 132.073 125.347 132.137 125.111 132.304C125.579 133.167 126.479 134.427 127.81 134.499C128.71 135.902 129.394 139.608 126.443 141.011C124.552 141.903 122.837 140.708 121.651 139.881L121.62 139.86C123.455 136.082 125.219 132.088 125.579 131.009C125.795 130.325 125.579 129.713 125.219 129.245C127.594 128.238 129.286 127.59 130.077 127.95C131.229 128.49 130.977 129.713 128.962 130.937ZM166.138 129.353C166.21 124.028 171.248 119.926 171.788 119.818C172.22 119.746 174.091 119.459 174.523 122.553C174.562 122.842 174.114 123.434 173.5 124.246C171.825 126.461 168.913 130.311 171.284 134.103C172.868 133.491 179.274 126.187 173.767 118.451C173.767 118.451 179.202 117.875 179.705 125.108C180.245 133.347 172.76 136.945 171.104 136.622C169.449 136.298 166.102 135.218 166.138 129.353ZM201.622 125.287C201.442 130.685 205.581 132.052 207.524 131.404C207.344 131.8 207.092 132.376 207.02 132.7C206.661 134.031 208.784 135.722 209.432 135.722C210.079 135.758 215.622 125.144 216.233 123.344C216.809 121.653 214.47 120.322 214.002 120.322C213.966 120.322 213.894 120.358 213.822 120.466C212.779 120.466 208.928 121.294 206.193 122.445C208.244 119.063 213.21 114.997 216.305 116.868C216.305 116.868 215.37 113.917 213.21 113.27C207.812 113.234 201.802 119.279 201.622 125.287ZM208.424 129.497C206.948 128.922 205.617 127.482 205.293 125.863C206.769 125.575 209.972 124.676 211.915 123.992C211.57 124.539 211.159 125.144 210.734 125.77C209.872 127.038 208.954 128.389 208.424 129.497ZM227.462 111.507C229.729 111.579 231.421 113.917 231.385 115.069C231.349 116.22 228.722 118.523 227.246 118.451C227.246 118.451 229.585 115.645 228.866 114.889C228.146 114.133 224.619 117.048 224.439 118.451C224.342 119.224 224.952 119.716 225.732 120.345C226.696 121.123 227.92 122.112 228.398 124.1C229.009 126.691 223.179 130.901 220.012 130.793C216.845 130.685 215.478 126.511 215.514 125.647C215.514 125.647 216.881 127.195 218.969 126.979C221.596 126.727 225.195 124.28 223.503 122.301C223.008 121.722 222.494 121.238 222.021 120.793C220.88 119.718 219.978 118.869 220.156 117.444C220.408 115.321 225.195 111.435 227.462 111.507Z" fill="#D1D5DB"/>
</g>
<defs>
<clipPath id="clip0_196_3">
<rect width="448" height="265" fill="white"/>
</clipPath>
</defs>
</svg>
