<svg width="262" height="172" viewBox="0 0 262 172" fill="none" xmlns="http://www.w3.org/2000/svg">
<rect width="262" height="172" fill="#1E1E1E"/>
<g clip-path="url(#clip0_101_3)">
<path d="M86.2159 7.88593C112.636 1.35373 146.852 -1.36886 177.051 0.658349C179.455 0.819729 186.684 1.74602 193.114 2.71668C203.264 4.24907 205.601 4.70948 210.846 6.21018C221.624 9.2942 231.051 13.4244 236.707 17.5408C239.646 19.6794 243.016 23.6408 242.609 24.4783C242.468 24.7698 241.563 23.9091 240.384 22.3604C238.789 20.2654 237.558 19.2231 234.133 17.0689C227.329 12.7895 217.175 8.79316 206.137 6.05052C200.087 4.54729 182.191 2.13595 173.786 1.6917C138.972 -0.148687 104.472 3.5986 75.1915 12.4009C41.5123 22.5251 12.7958 41.1365 4.63282 58.1301C3.2235 61.0637 2.44164 67.6868 3.17423 70.4848C4.62955 76.0445 8.72925 81.1408 14.9356 85.1064C26.2527 92.3375 40.3491 96.5953 66.1322 100.57C94.2778 104.91 121.013 106.294 150.306 104.928C188.259 103.158 215.348 98.0269 234.236 89.0298C245.73 83.5548 252.367 78.0651 256.473 70.6365C258.428 67.0989 259.596 59.7263 258.783 56.0516C256.41 45.3215 247.138 36.1814 230.655 28.3227C214.914 20.8176 192.014 15.0968 168.61 12.8227C146.235 10.6482 130.052 10.8252 108.114 13.4837C101.928 14.2334 100.609 14.2597 101.051 13.624C101.372 13.1636 114.161 11.572 122.869 10.909C143.476 9.33963 160.109 10.0894 183.093 13.623C198.056 15.9235 204.751 17.4378 215.928 21.0514C223.921 23.6349 227.562 25.1029 234.214 28.4219C249.381 35.9903 258.176 44.854 260.738 55.1515C261.324 57.5112 261.339 59.0221 260.809 62.8153C259.985 68.7101 259.402 70.2883 256.519 74.4182C252.181 80.6325 244.9 86.1204 234.946 90.6783C214.918 99.849 186.363 104.986 146.527 106.585C111.949 107.973 72.7653 104.732 45.0378 98.1922C22.219 92.8095 8.15426 85.1224 3.03913 75.2368C0.843051 70.992 0.416261 68.4645 1.11475 63.8295C2.09342 57.3365 5.22362 51.9594 12.0601 45.0257C27.512 29.354 54.9347 15.6198 86.2159 7.88593Z" fill="#48639C"/>
<path d="M141.063 106.909C140.835 107.172 140.61 107.593 140.458 107.769C140.623 108.066 140.632 108.381 140.789 108.364C141.97 108.466 142.386 109.289 142.806 110.269C143.734 112.615 144.197 115.172 144.271 117.852C144.58 126.278 142.763 134.55 139.129 142.476C137.347 146.317 135.253 150.193 132.993 153.771C129.975 158.385 126.474 162.579 122.007 165.934C120.851 166.777 119.772 167.533 118.599 167.745C118.039 167.414 118.187 167.08 118.412 166.66C119.596 163.994 121.179 161.521 122.762 159.048C123.592 157.767 124.578 156.469 125.005 154.838C124.683 154.559 124.365 154.437 124.204 154.297C123.895 154.49 123.581 154.526 123.51 154.771C121.702 157.666 119.972 160.472 118.245 163.436C117.568 164.541 117.128 165.699 116.607 166.786C116.163 167.785 116.032 168.749 116.533 169.799C117.431 171.041 118.931 171.266 120.426 171.333C122.315 171.434 124.2 171.378 126.161 171.234C127.809 171.125 129.376 170.947 131.019 170.681C131.409 170.557 131.794 170.276 131.62 169.664C130.188 169.036 128.867 169.582 127.609 169.567C126.351 169.552 125.017 169.624 123.682 169.697C122.424 169.682 121.086 169.597 119.904 169.495C119.569 168.742 120.115 168.601 120.425 168.407C123.058 167.001 125.285 165.086 127.351 163.033C134.535 155.572 139.326 146.803 142.76 137.318C145.023 130.972 145.947 124.541 145.766 117.919C145.701 115.554 145.404 113.295 144.636 111.089C144.292 110.021 143.711 108.901 143.211 107.851C142.961 107.326 142.397 106.836 141.063 106.909Z" fill="#48639C"/>
<path d="M62.0227 41.426C59.2147 41.426 57.5227 43.496 57.5227 46.574C57.5227 49.724 59.3587 51.542 62.0407 51.542C64.2547 51.542 66.0367 50.408 66.0367 47.78V47.402H61.6807V45.836H67.6927V53.018H66.2167L66.0907 51.254C65.3887 52.388 63.8047 53.216 61.8967 53.216C58.2067 53.216 55.6687 50.552 55.6687 46.538C55.6687 42.578 58.2247 39.77 62.0587 39.77C64.9027 39.77 67.1167 41.408 67.5487 43.91H65.6767C65.1907 42.254 63.7507 41.426 62.0227 41.426ZM74.9583 44.126V45.674H74.2023C72.6003 45.674 71.6103 46.646 71.6103 48.338V53H69.9183V44.216H71.5023L71.6103 45.548C71.9703 44.63 72.8523 44.018 74.0583 44.018C74.3643 44.018 74.6163 44.054 74.9583 44.126ZM75.6529 48.59C75.6529 45.872 77.5969 43.964 80.2429 43.964C82.8709 43.964 84.8149 45.872 84.8149 48.59C84.8149 51.308 82.8709 53.216 80.2429 53.216C77.5969 53.216 75.6529 51.308 75.6529 48.59ZM77.3629 48.59C77.3629 50.426 78.5329 51.704 80.2429 51.704C81.9349 51.704 83.1229 50.426 83.1229 48.59C83.1229 46.754 81.9349 45.476 80.2429 45.476C78.5329 45.476 77.3629 46.754 77.3629 48.59ZM88.1736 53L85.2936 44.198H87.0396L88.4976 48.77C88.6956 49.418 88.8756 50.084 89.0376 50.858C89.1816 50.084 89.4156 49.346 89.6136 48.77L91.0896 44.198H92.8176L94.2756 48.77C94.4196 49.202 94.7076 50.228 94.8516 50.858C94.9956 50.156 95.1576 49.544 95.4096 48.77L96.8856 44.198H98.6496L95.6436 53H94.0416L92.5116 48.284C92.2236 47.402 92.0436 46.718 91.9536 46.232C91.8636 46.664 91.7016 47.24 91.3776 48.302L89.8476 53H88.1736ZM101.214 52.298C101.214 53.594 100.242 54.674 98.9641 54.836V54.08C99.7021 53.954 100.224 53.468 100.224 52.91C100.098 52.982 99.9541 53.018 99.7381 53.018C99.1441 53.018 98.6401 52.586 98.6401 51.92C98.6401 51.2 99.1261 50.678 99.8461 50.678C100.602 50.678 101.214 51.308 101.214 52.298ZM116.799 53H108.861V39.986H116.799V41.606H110.625V45.674H116.187V47.24H110.625V51.362H116.799V53ZM120.759 53H119.067V44.198H120.597L120.777 45.548C121.335 44.54 122.451 43.946 123.693 43.946C126.015 43.946 127.077 45.368 127.077 47.618V53H125.385V47.996C125.385 46.214 124.557 45.494 123.261 45.494C121.677 45.494 120.759 46.628 120.759 48.338V53ZM128.862 48.374C128.862 45.89 130.464 43.946 133.02 43.946C134.442 43.946 135.54 44.594 136.098 45.692L136.224 44.198H137.736V52.64C137.736 55.412 136.026 57.176 133.326 57.176C130.932 57.176 129.294 55.826 128.97 53.594H130.662C130.878 54.89 131.85 55.646 133.326 55.646C134.982 55.646 136.062 54.566 136.062 52.892V51.128C135.486 52.154 134.334 52.766 132.948 52.766C130.446 52.766 128.862 50.84 128.862 48.374ZM130.554 48.338C130.554 49.994 131.58 51.29 133.236 51.29C134.946 51.29 135.99 50.066 135.99 48.338C135.99 46.646 134.982 45.422 133.254 45.422C131.562 45.422 130.554 46.718 130.554 48.338ZM142.752 53.216C140.862 53.216 139.746 52.154 139.746 50.552C139.746 48.932 140.952 47.924 143.022 47.762L145.794 47.546V47.294C145.794 45.818 144.912 45.296 143.724 45.296C142.302 45.296 141.492 45.926 141.492 46.988H140.016C140.016 45.152 141.528 43.946 143.796 43.946C145.974 43.946 147.45 45.098 147.45 47.474V53H146.01L145.83 51.578C145.38 52.586 144.174 53.216 142.752 53.216ZM143.238 51.902C144.84 51.902 145.812 50.858 145.812 49.202V48.734L143.562 48.914C142.068 49.058 141.456 49.634 141.456 50.498C141.456 51.434 142.14 51.902 143.238 51.902ZM149.235 48.374C149.235 45.89 150.837 43.946 153.393 43.946C154.815 43.946 155.913 44.594 156.471 45.692L156.597 44.198H158.109V52.64C158.109 55.412 156.399 57.176 153.699 57.176C151.305 57.176 149.667 55.826 149.343 53.594H151.035C151.251 54.89 152.223 55.646 153.699 55.646C155.355 55.646 156.435 54.566 156.435 52.892V51.128C155.859 52.154 154.707 52.766 153.321 52.766C150.819 52.766 149.235 50.84 149.235 48.374ZM150.927 48.338C150.927 49.994 151.953 51.29 153.609 51.29C155.319 51.29 156.363 50.066 156.363 48.338C156.363 46.646 155.355 45.422 153.627 45.422C151.935 45.422 150.927 46.718 150.927 48.338ZM164.349 53.216C161.757 53.216 159.975 51.344 159.975 48.608C159.975 45.854 161.721 43.946 164.277 43.946C166.779 43.946 168.417 45.674 168.417 48.284V48.914L161.613 48.932C161.739 50.786 162.711 51.812 164.385 51.812C165.699 51.812 166.563 51.272 166.851 50.264H168.435C168.003 52.154 166.527 53.216 164.349 53.216ZM164.277 45.368C162.801 45.368 161.865 46.25 161.649 47.798H166.725C166.725 46.34 165.771 45.368 164.277 45.368ZM176.057 53H174.221L178.973 39.986H180.935L185.705 53H183.851L182.681 49.76H177.209L176.057 53ZM179.729 42.794L177.749 48.23H182.159L180.161 42.794C180.071 42.542 179.981 42.236 179.945 42.038C179.909 42.218 179.819 42.524 179.729 42.794ZM188.839 53H187.147V44.198H188.677L188.857 45.548C189.415 44.54 190.531 43.946 191.773 43.946C194.095 43.946 195.157 45.368 195.157 47.618V53H193.465V47.996C193.465 46.214 192.637 45.494 191.341 45.494C189.757 45.494 188.839 46.628 188.839 48.338V53ZM201.028 53.216C198.472 53.216 196.924 51.308 196.924 48.626C196.924 45.926 198.49 43.946 201.1 43.946C202.45 43.946 203.584 44.54 204.178 45.62V39.752H205.852V53H204.34L204.196 51.398C203.62 52.604 202.432 53.216 201.028 53.216ZM201.37 51.686C203.098 51.686 204.16 50.408 204.16 48.572C204.16 46.772 203.098 45.476 201.37 45.476C199.642 45.476 198.634 46.772 198.634 48.572C198.634 50.39 199.642 51.686 201.37 51.686ZM36.3211 77H34.5931V63.986H36.3211L40.8031 74.93L45.2851 63.986H47.0491V77H45.3211V71.852C45.3211 69.422 45.3391 68.54 45.4291 67.622L41.6311 77H39.9751L36.1951 67.658C36.2851 68.288 36.3211 69.62 36.3211 71.438V77ZM49.2154 72.59C49.2154 69.872 51.1594 67.964 53.8054 67.964C56.4334 67.964 58.3774 69.872 58.3774 72.59C58.3774 75.308 56.4334 77.216 53.8054 77.216C51.1594 77.216 49.2154 75.308 49.2154 72.59ZM50.9254 72.59C50.9254 74.426 52.0954 75.704 53.8054 75.704C55.4974 75.704 56.6854 74.426 56.6854 72.59C56.6854 70.754 55.4974 69.476 53.8054 69.476C52.0954 69.476 50.9254 70.754 50.9254 72.59ZM61.9424 77H60.2504V68.198H61.7804L61.9604 69.548C62.5184 68.54 63.6344 67.946 64.8764 67.946C67.1984 67.946 68.2604 69.368 68.2604 71.618V77H66.5684V71.996C66.5684 70.214 65.7404 69.494 64.4444 69.494C62.8604 69.494 61.9424 70.628 61.9424 72.338V77ZM74.4019 77.216C71.8099 77.216 70.0279 75.344 70.0279 72.608C70.0279 69.854 71.7739 67.946 74.3299 67.946C76.8319 67.946 78.4699 69.674 78.4699 72.284V72.914L71.6659 72.932C71.7919 74.786 72.7639 75.812 74.4379 75.812C75.7519 75.812 76.6159 75.272 76.9039 74.264H78.4879C78.0559 76.154 76.5799 77.216 74.4019 77.216ZM74.3299 69.368C72.8539 69.368 71.9179 70.25 71.7019 71.798H76.7779C76.7779 70.34 75.8239 69.368 74.3299 69.368ZM82.7559 77H81.0639V69.62H79.3359V68.198H81.0639V65.444H82.7559V68.198H84.4839V69.62H82.7559V77ZM86.8303 66.11C86.2183 66.11 85.7143 65.606 85.7143 64.994C85.7143 64.364 86.2183 63.878 86.8303 63.878C87.4423 63.878 87.9463 64.364 87.9463 64.994C87.9463 65.606 87.4423 66.11 86.8303 66.11ZM86.0023 77V68.198H87.6943V77H86.0023ZM96.4688 77H89.6108V75.632L94.3628 69.62H89.6108V68.198H96.4688V69.584L91.6808 75.578H96.4688V77ZM101.982 77.216C99.39 77.216 97.608 75.344 97.608 72.608C97.608 69.854 99.354 67.946 101.91 67.946C104.412 67.946 106.05 69.674 106.05 72.284V72.914L99.246 72.932C99.372 74.786 100.344 75.812 102.018 75.812C103.332 75.812 104.196 75.272 104.484 74.264H106.068C105.636 76.154 104.16 77.216 101.982 77.216ZM101.91 69.368C100.434 69.368 99.498 70.25 99.282 71.798H104.358C104.358 70.34 103.404 69.368 101.91 69.368ZM116.228 71.708L111.818 63.986H113.798L116.696 69.188C116.876 69.494 116.984 69.746 117.128 70.052C117.29 69.728 117.326 69.62 117.56 69.188L120.44 63.986H122.366L117.992 71.708V77H116.228V71.708ZM121.426 72.59C121.426 69.872 123.37 67.964 126.016 67.964C128.644 67.964 130.588 69.872 130.588 72.59C130.588 75.308 128.644 77.216 126.016 77.216C123.37 77.216 121.426 75.308 121.426 72.59ZM123.136 72.59C123.136 74.426 124.306 75.704 126.016 75.704C127.708 75.704 128.896 74.426 128.896 72.59C128.896 70.754 127.708 69.476 126.016 69.476C124.306 69.476 123.136 70.754 123.136 72.59ZM138.334 68.198H140.008V77H138.496L138.316 75.668C137.812 76.586 136.642 77.216 135.346 77.216C133.294 77.216 132.142 75.83 132.142 73.67V68.198H133.834V73.112C133.834 75.002 134.644 75.722 135.94 75.722C137.488 75.722 138.334 74.732 138.334 72.842V68.198ZM147.503 68.126V69.674H146.747C145.145 69.674 144.155 70.646 144.155 72.338V77H142.463V68.216H144.047L144.155 69.548C144.515 68.63 145.397 68.018 146.603 68.018C146.909 68.018 147.161 68.054 147.503 68.126ZM154.84 77H153.004L157.756 63.986H159.718L164.488 77H162.634L161.464 73.76H155.992L154.84 77ZM158.512 66.794L156.532 72.23H160.942L158.944 66.794C158.854 66.542 158.764 66.236 158.728 66.038C158.692 66.218 158.602 66.524 158.512 66.794ZM171.768 68.198H173.442V77H171.93L171.75 75.668C171.246 76.586 170.076 77.216 168.78 77.216C166.728 77.216 165.576 75.83 165.576 73.67V68.198H167.268V73.112C167.268 75.002 168.078 75.722 169.374 75.722C170.922 75.722 171.768 74.732 171.768 72.842V68.198ZM179.249 77.216C176.693 77.216 175.145 75.308 175.145 72.626C175.145 69.926 176.711 67.946 179.321 67.946C180.671 67.946 181.805 68.54 182.399 69.62V63.752H184.073V77H182.561L182.417 75.398C181.841 76.604 180.653 77.216 179.249 77.216ZM179.591 75.686C181.319 75.686 182.381 74.408 182.381 72.572C182.381 70.772 181.319 69.476 179.591 69.476C177.863 69.476 176.855 70.772 176.855 72.572C176.855 74.39 177.863 75.686 179.591 75.686ZM187.342 66.11C186.73 66.11 186.226 65.606 186.226 64.994C186.226 64.364 186.73 63.878 187.342 63.878C187.954 63.878 188.458 64.364 188.458 64.994C188.458 65.606 187.954 66.11 187.342 66.11ZM186.514 77V68.198H188.206V77H186.514ZM194.46 77.216C191.868 77.216 190.086 75.344 190.086 72.608C190.086 69.854 191.832 67.946 194.388 67.946C196.89 67.946 198.528 69.674 198.528 72.284V72.914L191.724 72.932C191.85 74.786 192.822 75.812 194.496 75.812C195.81 75.812 196.674 75.272 196.962 74.264H198.546C198.114 76.154 196.638 77.216 194.46 77.216ZM194.388 69.368C192.912 69.368 191.976 70.25 191.76 71.798H196.836C196.836 70.34 195.882 69.368 194.388 69.368ZM202.11 77H200.418V68.198H201.948L202.128 69.548C202.686 68.54 203.802 67.946 205.044 67.946C207.366 67.946 208.428 69.368 208.428 71.618V77H206.736V71.996C206.736 70.214 205.908 69.494 204.612 69.494C203.028 69.494 202.11 70.628 202.11 72.338V77ZM210.196 72.608C210.196 69.854 211.942 67.946 214.516 67.946C216.73 67.946 218.278 69.206 218.584 71.168H216.892C216.604 70.052 215.704 69.458 214.57 69.458C212.968 69.458 211.87 70.682 211.87 72.59C211.87 74.48 212.896 75.704 214.498 75.704C215.704 75.704 216.604 75.074 216.91 74.03H218.602C218.26 75.938 216.622 77.216 214.498 77.216C211.906 77.216 210.196 75.38 210.196 72.608ZM224.185 77.216C221.593 77.216 219.811 75.344 219.811 72.608C219.811 69.854 221.557 67.946 224.113 67.946C226.615 67.946 228.253 69.674 228.253 72.284V72.914L221.449 72.932C221.575 74.786 222.547 75.812 224.221 75.812C225.535 75.812 226.399 75.272 226.687 74.264H228.271C227.839 76.154 226.363 77.216 224.185 77.216ZM224.113 69.368C222.637 69.368 221.701 70.25 221.485 71.798H226.561C226.561 70.34 225.607 69.368 224.113 69.368Z" fill="white"/>
</g>
<defs>
<clipPath id="clip0_101_3">
<rect width="262" height="171.384" fill="white"/>
</clipPath>
</defs>
</svg>
