<svg xmlns="http://www.w3.org/2000/svg" xmlns:xlink="http://www.w3.org/1999/xlink" style="width: 100%; height: 100%" width="104"  height="17" ><defs><svg xmlns="http://www.w3.org/2000/svg" xlink="http://www.w3.org/1999/xlink" viewBox="0 0 104 17" id="svg12651237426"><g transform="translate(0 0.047)" id="ss12651237426_1"><path d="M 0 0 L 16 0 L 16 16 L 0 16 Z" fill="#000000" fill-opacity="0"></path><g transform="translate(0.5 0)" id="ss12651237426_3"><path d="M 15.5 5.49 L 10.1 5.49 L 8.477 0.313 C 8.395 0.123 8.207 0 8 0 C 7.793 0 7.606 0.123 7.523 0.313 L 5.9 5.49 L 0.5 5.49 C 0.285 5.49 0.094 5.628 0.026 5.832 C -0.042 6.036 0.028 6.261 0.2 6.39 L 4.5 9.62 L 2.807 14.828 C 2.741 15.034 2.815 15.259 2.989 15.385 C 3.164 15.512 3.401 15.513 3.576 15.386 L 8 12.172 L 12.424 15.386 C 12.599 15.513 12.836 15.512 13.011 15.385 C 13.185 15.259 13.259 15.034 13.193 14.828 L 11.5 9.62 L 15.8 6.39 C 15.972 6.261 16.042 6.036 15.974 5.832 C 15.906 5.628 15.715 5.49 15.5 5.49 Z" fill="#FFD953"></path></g></g><g transform="translate(22 0.047)" id="ss12651237426_5"><path d="M 0 0 L 16 0 L 16 16 L 0 16 Z" fill="#000000" fill-opacity="0"></path><g transform="translate(0.5 0)" id="ss12651237426_7"><path d="M 15.5 5.49 L 10.1 5.49 L 8.477 0.313 C 8.395 0.123 8.207 0 8 0 C 7.793 0 7.606 0.123 7.523 0.313 L 5.9 5.49 L 0.5 5.49 C 0.285 5.49 0.094 5.628 0.026 5.832 C -0.042 6.036 0.028 6.261 0.2 6.39 L 4.5 9.62 L 2.807 14.828 C 2.741 15.034 2.815 15.259 2.989 15.385 C 3.164 15.512 3.401 15.513 3.576 15.386 L 8 12.172 L 12.424 15.386 C 12.599 15.513 12.836 15.512 13.011 15.385 C 13.185 15.259 13.259 15.034 13.193 14.828 L 11.5 9.62 L 15.8 6.39 C 15.972 6.261 16.042 6.036 15.974 5.832 C 15.906 5.628 15.715 5.49 15.5 5.49 Z" fill="#FFD953"></path></g></g><g transform="translate(44 0.047)" id="ss12651237426_9"><path d="M 0 0 L 16 0 L 16 16 L 0 16 Z" fill="#000000" fill-opacity="0"></path><g transform="translate(0.5 0)" id="ss12651237426_11"><path d="M 15.5 5.49 L 10.1 5.49 L 8.477 0.313 C 8.395 0.123 8.207 0 8 0 C 7.793 0 7.606 0.123 7.523 0.313 L 5.9 5.49 L 0.5 5.49 C 0.285 5.49 0.094 5.628 0.026 5.832 C -0.042 6.036 0.028 6.261 0.2 6.39 L 4.5 9.62 L 2.807 14.828 C 2.741 15.034 2.815 15.259 2.989 15.385 C 3.164 15.512 3.401 15.513 3.576 15.386 L 8 12.172 L 12.424 15.386 C 12.599 15.513 12.836 15.512 13.011 15.385 C 13.185 15.259 13.259 15.034 13.193 14.828 L 11.5 9.62 L 15.8 6.39 C 15.972 6.261 16.042 6.036 15.974 5.832 C 15.906 5.628 15.715 5.49 15.5 5.49 Z" fill="#FFD953"></path></g></g><g transform="translate(66 0.047)" id="ss12651237426_13"><path d="M 0 0 L 16 0 L 16 16 L 0 16 Z" fill="#000000" fill-opacity="0"></path><g transform="translate(0.5 0)" id="ss12651237426_15"><path d="M 15.5 5.49 L 10.1 5.49 L 8.477 0.313 C 8.395 0.123 8.207 0 8 0 C 7.793 0 7.606 0.123 7.523 0.313 L 5.9 5.49 L 0.5 5.49 C 0.285 5.49 0.094 5.628 0.026 5.832 C -0.042 6.036 0.028 6.261 0.2 6.39 L 4.5 9.62 L 2.807 14.828 C 2.741 15.034 2.815 15.259 2.989 15.385 C 3.164 15.512 3.401 15.513 3.576 15.386 L 8 12.172 L 12.424 15.386 C 12.599 15.513 12.836 15.512 13.011 15.385 C 13.185 15.259 13.259 15.034 13.193 14.828 L 11.5 9.62 L 15.8 6.39 C 15.972 6.261 16.042 6.036 15.974 5.832 C 15.906 5.628 15.715 5.49 15.5 5.49 Z" fill="#FFD953"></path></g></g><g transform="translate(88 0.047)" id="ss12651237426_17"><path d="M 0 0 L 16 0 L 16 16 L 0 16 Z" fill="#000000" fill-opacity="0"></path><g transform="translate(0.5 0)" id="ss12651237426_19"><path d="M 15.5 5.49 L 10.1 5.49 L 8.477 0.313 C 8.395 0.123 8.207 0 8 0 C 7.793 0 7.606 0.123 7.523 0.313 L 5.9 5.49 L 0.5 5.49 C 0.285 5.49 0.094 5.628 0.026 5.832 C -0.042 6.036 0.028 6.261 0.2 6.39 L 4.5 9.62 L 2.807 14.828 C 2.741 15.034 2.815 15.259 2.989 15.385 C 3.164 15.512 3.401 15.513 3.576 15.386 L 8 12.172 L 12.424 15.386 C 12.599 15.514 12.836 15.515 13.012 15.387 C 13.187 15.26 13.261 15.034 13.193 14.828 L 11.5 9.62 L 15.8 6.39 C 15.973 6.261 16.044 6.035 15.974 5.831 C 15.906 5.627 15.715 5.49 15.5 5.49 Z" fill="#FFD953"></path></g></g><g transform="translate(0 0.047)" id="ss12651237426_21"><path d="M 0 0 L 16 0 L 16 16 L 0 16 Z" fill="#000000" fill-opacity="0"></path><g transform="translate(0.5 0)" id="ss12651237426_23"><path d="M 15.5 5.49 L 10.1 5.49 L 8.477 0.313 C 8.395 0.123 8.207 0 8 0 C 7.793 0 7.606 0.123 7.523 0.313 L 5.9 5.49 L 0.5 5.49 C 0.285 5.49 0.094 5.628 0.026 5.832 C -0.042 6.036 0.028 6.261 0.2 6.39 L 4.5 9.62 L 2.807 14.828 C 2.741 15.034 2.815 15.259 2.989 15.385 C 3.164 15.512 3.401 15.513 3.576 15.386 L 8 12.172 L 12.424 15.386 C 12.599 15.513 12.836 15.512 13.011 15.385 C 13.185 15.259 13.259 15.034 13.193 14.828 L 11.5 9.62 L 15.8 6.39 C 15.972 6.261 16.042 6.036 15.974 5.832 C 15.906 5.628 15.715 5.49 15.5 5.49 Z" fill="#FFD953"></path></g></g><g transform="translate(22 0.047)" id="ss12651237426_25"><path d="M 0 0 L 16 0 L 16 16 L 0 16 Z" fill="#000000" fill-opacity="0"></path><g transform="translate(0.5 0)" id="ss12651237426_27"><path d="M 15.5 5.49 L 10.1 5.49 L 8.477 0.313 C 8.395 0.123 8.207 0 8 0 C 7.793 0 7.606 0.123 7.523 0.313 L 5.9 5.49 L 0.5 5.49 C 0.285 5.49 0.094 5.628 0.026 5.832 C -0.042 6.036 0.028 6.261 0.2 6.39 L 4.5 9.62 L 2.807 14.828 C 2.741 15.034 2.815 15.259 2.989 15.385 C 3.164 15.512 3.401 15.513 3.576 15.386 L 8 12.172 L 12.424 15.386 C 12.599 15.513 12.836 15.512 13.011 15.385 C 13.185 15.259 13.259 15.034 13.193 14.828 L 11.5 9.62 L 15.8 6.39 C 15.972 6.261 16.042 6.036 15.974 5.832 C 15.906 5.628 15.715 5.49 15.5 5.49 Z" fill="#FFD953"></path></g></g><g transform="translate(44 0.047)" id="ss12651237426_29"><path d="M 0 0 L 16 0 L 16 16 L 0 16 Z" fill="#000000" fill-opacity="0"></path><g transform="translate(0.5 0)" id="ss12651237426_31"><path d="M 15.5 5.49 L 10.1 5.49 L 8.477 0.313 C 8.395 0.123 8.207 0 8 0 C 7.793 0 7.606 0.123 7.523 0.313 L 5.9 5.49 L 0.5 5.49 C 0.285 5.49 0.094 5.628 0.026 5.832 C -0.042 6.036 0.028 6.261 0.2 6.39 L 4.5 9.62 L 2.807 14.828 C 2.741 15.034 2.815 15.259 2.989 15.385 C 3.164 15.512 3.401 15.513 3.576 15.386 L 8 12.172 L 12.424 15.386 C 12.599 15.513 12.836 15.512 13.011 15.385 C 13.185 15.259 13.259 15.034 13.193 14.828 L 11.5 9.62 L 15.8 6.39 C 15.972 6.261 16.042 6.036 15.974 5.832 C 15.906 5.628 15.715 5.49 15.5 5.49 Z" fill="#FFD953"></path></g></g><g transform="translate(66 0.047)" id="ss12651237426_33"><path d="M 0 0 L 16 0 L 16 16 L 0 16 Z" fill="#000000" fill-opacity="0"></path><g transform="translate(0.5 0)" id="ss12651237426_35"><path d="M 15.5 5.49 L 10.1 5.49 L 8.477 0.313 C 8.395 0.123 8.207 0 8 0 C 7.793 0 7.606 0.123 7.523 0.313 L 5.9 5.49 L 0.5 5.49 C 0.285 5.49 0.094 5.628 0.026 5.832 C -0.042 6.036 0.028 6.261 0.2 6.39 L 4.5 9.62 L 2.807 14.828 C 2.741 15.034 2.815 15.259 2.989 15.385 C 3.164 15.512 3.401 15.513 3.576 15.386 L 8 12.172 L 12.424 15.386 C 12.599 15.513 12.836 15.512 13.011 15.385 C 13.185 15.259 13.259 15.034 13.193 14.828 L 11.5 9.62 L 15.8 6.39 C 15.972 6.261 16.042 6.036 15.974 5.832 C 15.906 5.628 15.715 5.49 15.5 5.49 Z" fill="#FFD953"></path></g></g><g transform="translate(88 0.047)" id="ss12651237426_37"><path d="M 0 0 L 16 0 L 16 16 L 0 16 Z" fill="#000000" fill-opacity="0"></path><g transform="translate(0.5 0)" id="ss12651237426_39"><path d="M 15.5 5.49 L 10.1 5.49 L 8.477 0.313 C 8.395 0.123 8.207 0 8 0 C 7.793 0 7.606 0.123 7.523 0.313 L 5.9 5.49 L 0.5 5.49 C 0.285 5.49 0.094 5.628 0.026 5.832 C -0.042 6.036 0.028 6.261 0.2 6.39 L 4.5 9.62 L 2.807 14.828 C 2.741 15.034 2.815 15.259 2.989 15.385 C 3.164 15.512 3.401 15.513 3.576 15.386 L 8 12.172 L 12.424 15.386 C 12.599 15.514 12.836 15.515 13.012 15.387 C 13.187 15.26 13.261 15.034 13.193 14.828 L 11.5 9.62 L 15.8 6.39 C 15.973 6.261 16.044 6.035 15.974 5.831 C 15.906 5.627 15.715 5.49 15.5 5.49 Z" fill="#FFD953"></path></g></g></svg></defs><use href="#svg12651237426"></use></svg>